<?xml version="1.0" encoding="UTF-8"?>
<!-- Generated by Pixelmator Pro 3.5.6 -->
<svg width="310" height="82" viewBox="0 0 310 82" xmlns="http://www.w3.org/2000/svg">
    <g id="Group">
        <g id="g1">
            <path id="Path" fill="#000000" stroke="none" d="M 102.150002 60.909996 C 99.660004 59.839996 97.690002 58.349998 96.25 56.43 C 94.809998 54.510002 94.010002 52.309998 93.860001 49.82 L 100.879997 49.82 C 101.080002 51.860001 102.040001 53.529999 103.760002 54.82 C 105.480003 56.120003 107.730003 56.760002 110.519997 56.760002 C 113.110001 56.760002 115.150002 56.190002 116.639999 55.040001 C 118.129997 53.900002 118.879997 52.450001 118.879997 50.709999 C 118.879997 48.919998 118.080002 47.59 116.489998 46.709999 C 114.900002 45.84 112.43 44.98 109.099998 44.130001 C 106.059998 43.329998 103.580002 42.52 101.669998 41.700001 C 99.75 40.880001 98.110001 39.66 96.739998 38.040001 C 95.370003 36.419998 94.690002 34.290001 94.690002 31.649998 C 94.690002 29.559998 95.309998 27.639999 96.559998 25.900002 C 97.800003 24.160004 99.57 22.779999 101.860001 21.75 C 104.150002 20.730003 106.760002 20.220001 109.699997 20.220001 C 114.230003 20.220001 117.889999 21.370003 120.68 23.660004 C 123.470001 25.950005 124.960007 29.090004 125.160004 33.07 L 118.360001 33.07 C 118.209999 30.93 117.349998 29.209999 115.779999 27.919998 C 114.209999 26.630005 112.110001 25.980003 109.470001 25.980003 C 107.029999 25.980003 105.089996 26.5 103.639999 27.550003 C 102.199997 28.599998 101.470001 29.970001 101.470001 31.66 C 101.470001 33 101.910004 34.110001 102.779999 34.98 C 103.650002 35.849998 104.75 36.549999 106.07 37.07 C 107.389999 37.59 109.220001 38.18 111.559998 38.82 C 114.5 39.619999 116.889999 40.399998 118.730003 41.169998 C 120.57 41.939999 122.149994 43.099998 123.470001 44.639999 C 124.789993 46.18 125.470001 48.200001 125.520004 50.689999 C 125.520004 52.93 124.899994 54.949997 123.649994 56.739998 C 122.399994 58.529999 120.650002 59.940002 118.389999 60.959999 C 116.120003 61.979996 113.519997 62.489998 110.589996 62.489998 C 107.449997 62.510002 104.639999 61.979996 102.150002 60.909996 Z"/>
            <path id="path1" fill="#000000" stroke="none" d="M 133.220001 12.919998 C 132.320007 12.019997 131.880005 10.93 131.880005 9.629997 C 131.880005 8.340004 132.330002 7.239998 133.220001 6.340004 C 134.119995 5.440002 135.210007 5 136.509995 5 C 137.75 5 138.809998 5.449997 139.679993 6.340004 C 140.550003 7.239998 140.990005 8.330002 140.990005 9.629997 C 140.990005 10.93 140.550003 12.019997 139.679993 12.919998 C 138.809998 13.82 137.75 14.260002 136.509995 14.260002 C 135.210007 14.269997 134.119995 13.82 133.220001 12.919998 Z M 139.789993 20.910004 L 139.789993 61.839996 L 132.990005 61.839996 L 132.990005 20.910004 L 139.789993 20.910004 Z"/>
            <path id="path2" fill="#000000" stroke="none" d="M 175.449997 22.559998 C 178.110001 24.099998 180.089996 26.050003 181.389999 28.389999 L 181.389999 20.919998 L 188.259995 20.919998 L 188.259995 62.739998 C 188.259995 66.470001 187.460007 69.800003 185.869995 72.709999 C 184.279999 75.620003 182 77.900002 179.039993 79.540001 C 176.080002 81.18 172.630005 82 168.699997 82 C 163.320007 82 158.839996 80.729996 155.259995 78.190002 C 151.679993 75.650002 149.559998 72.190002 148.910004 67.809998 L 155.630005 67.809998 C 156.380005 70.300003 157.919998 72.300003 160.259995 73.82 C 162.600006 75.339996 165.410004 76.099998 168.699997 76.099998 C 172.429993 76.099998 175.479996 74.93 177.850006 72.589996 C 180.210007 70.25 181.399994 66.959999 181.399994 62.729996 L 181.399994 54.139999 C 180.059998 56.529999 178.059998 58.519997 175.429993 60.110001 C 172.789993 61.699997 169.699997 62.5 166.169998 62.5 C 162.539993 62.5 159.240005 61.599998 156.270004 59.809998 C 153.309998 58.019997 150.979996 55.5 149.289993 52.27 C 147.600006 49.029999 146.75 45.349998 146.75 41.220001 C 146.75 37.040001 147.600006 33.369999 149.289993 30.200001 C 150.979996 27.040001 153.309998 24.590004 156.270004 22.840004 C 159.229996 21.099998 162.529999 20.230003 166.169998 20.230003 C 169.690002 20.239998 172.789993 21.010002 175.449997 22.559998 Z M 179.520004 33.239998 C 178.270004 30.950001 176.589996 29.200005 174.479996 27.970001 C 172.360001 26.75 170.039993 26.139999 167.5 26.139999 C 164.960007 26.139999 162.649994 26.739998 160.550003 27.93 C 158.460007 29.120003 156.789993 30.869999 155.550003 33.16 C 154.300003 35.450001 153.679993 38.139999 153.679993 41.23 C 153.679993 44.369999 154.300003 47.09 155.550003 49.41 C 156.789993 51.73 158.460007 53.489998 160.550003 54.709999 C 162.639999 55.93 164.960007 56.540001 167.5 56.540001 C 170.039993 56.540001 172.369995 55.93 174.479996 54.709999 C 176.600006 53.489998 178.279999 51.720001 179.520004 49.41 C 180.759995 47.099998 181.389999 44.389999 181.389999 41.309998 C 181.389999 38.220001 180.770004 35.529999 179.520004 33.239998 Z"/>
            <path id="path3" fill="#000000" stroke="none" d="M 253.540009 22.150002 C 256.029999 23.470001 258 25.450005 259.440002 28.090004 C 260.880005 30.73 261.609985 33.939999 261.609985 37.720001 L 261.609985 61.839996 L 254.890015 61.839996 L 254.890015 38.689999 C 254.890015 34.610001 253.880005 31.48 251.869995 29.32 C 249.850006 27.150002 247.130005 26.07 243.690002 26.07 C 240.149994 26.07 237.339996 27.200005 235.25 29.470001 C 233.160004 31.739998 232.110001 35.009998 232.110001 39.290001 L 232.110001 61.839996 L 225.389999 61.839996 L 225.389999 38.689999 C 225.389999 34.610001 224.380005 31.48 222.369995 29.32 C 220.350006 27.150002 217.630005 26.07 214.190002 26.07 C 210.649994 26.07 207.839996 27.200005 205.75 29.470001 C 203.660004 31.739998 202.610001 35.009998 202.610001 39.290001 L 202.610001 61.839996 L 195.809998 61.839996 L 195.809998 20.910004 L 202.610001 20.910004 L 202.610001 26.809998 C 203.949997 24.669998 205.759995 23.029999 208.029999 21.880005 C 210.300003 20.730003 212.800003 20.160004 215.539993 20.160004 C 218.979996 20.160004 222.009995 20.93 224.649994 22.480003 C 227.289993 24.020004 229.259995 26.290001 230.550003 29.279999 C 231.699997 26.389999 233.589996 24.150002 236.229996 22.559998 C 238.869995 20.970001 241.809998 20.169998 245.039993 20.169998 C 248.210007 20.169998 251.049988 20.830002 253.540009 22.150002 Z"/>
            <path id="path4" fill="#000000" stroke="none" d="M 270.640015 30.209999 C 272.329987 27.050003 274.660004 24.599998 277.619995 22.849998 C 280.579987 21.110001 283.880005 20.239998 287.519989 20.239998 C 291.109985 20.239998 294.220001 21.010002 296.859985 22.559998 C 299.5 24.099998 301.470001 26.050003 302.76001 28.389999 L 302.76001 20.919998 L 309.630005 20.919998 L 309.630005 61.839996 L 302.76001 61.839996 L 302.76001 54.220001 C 301.420013 56.610001 299.410004 58.589996 296.75 60.159996 C 294.089996 61.729996 290.98999 62.510002 287.450012 62.510002 C 283.820007 62.510002 280.529999 61.610001 277.589996 59.82 C 274.649994 58.029999 272.339996 55.510002 270.640015 52.279999 C 268.950012 49.040001 268.100006 45.360001 268.100006 41.23 C 268.100006 37.049999 268.950012 33.380001 270.640015 30.209999 Z M 300.890015 33.239998 C 299.640015 30.950001 297.959991 29.200005 295.850006 27.970001 C 293.730011 26.75 291.410004 26.139999 288.869995 26.139999 C 286.329987 26.139999 284.019989 26.739998 281.920013 27.93 C 279.829987 29.120003 278.160004 30.869999 276.920013 33.16 C 275.670013 35.450001 275.049988 38.139999 275.049988 41.23 C 275.049988 44.369999 275.670013 47.09 276.920013 49.41 C 278.160004 51.73 279.829987 53.489998 281.920013 54.709999 C 284.01001 55.93 286.329987 56.540001 288.869995 56.540001 C 291.410004 56.540001 293.73999 55.93 295.850006 54.709999 C 297.970001 53.489998 299.649994 51.720001 300.890015 49.41 C 302.130005 47.099998 302.76001 44.389999 302.76001 41.309998 C 302.75 38.220001 302.130005 35.529999 300.890015 33.239998 Z"/>
        </g>
        <g id="g2">
            <path id="path5" fill="#000000" stroke="none" d="M 44.689999 22.110001 C 47.709999 20.82 51.380001 20.169998 55.720001 20.169998 L 55.720001 27.190002 L 53.279999 27.190002 C 42.91 27.190002 37.720001 31.32 37.720001 39.59 L 37.720001 61.839996 L 29.549999 61.839996 L 29.549999 20.910004 L 37.720001 20.910004 L 37.720001 27.559998 C 39.349998 25.220001 41.669998 23.410004 44.689999 22.110001 Z"/>
        </g>
        <path id="path6" fill="#000000" stroke="none" d="M 72.269997 20.220001 C 72.18 20.07 72.089996 19.919998 72 19.769997 L 62.400002 19.769997 C 63.400002 21.029999 64.309998 22.370003 65.120003 23.830002 C 67.739998 28.559998 69.059998 34.099998 69.059998 40.450001 C 69.059998 46.73 67.75 52.25 65.120003 57.010002 C 62.489998 61.769997 58.889999 65.440002 54.310001 68.010002 C 49.73 70.580002 44.57 71.870003 38.849998 71.870003 C 33.130001 71.870003 27.98 70.580002 23.389999 68.010002 C 18.809999 65.440002 15.200001 61.769997 12.58 57.010002 C 9.950001 52.25 8.64 46.73 8.64 40.450001 C 8.64 34.099998 9.950001 28.559998 12.58 23.830002 C 15.200001 19.099998 18.790001 15.459999 23.33 12.879997 C 26.52 11.07 30.029999 9.900002 33.84 9.370003 C 37.259998 8.889999 40.939999 9.129997 41.52 9.129997 C 41.57 9.129997 41.619999 9.129997 41.669998 9.139999 L 41.669998 9.129997 C 44.599998 9.129997 46.66 9.230003 52.240002 9.849998 C 55.02 10.160004 57.959999 10.32 60.629997 10.32 C 61.980003 10.32 63.25 10.279999 64.400002 10.199997 C 68.489998 9.900002 71.650002 9.040001 74.650002 7.400002 L 70.970001 0.639999 C 68.980003 1.730003 66.779999 2.300003 63.839996 2.519997 C 60.900002 2.730003 56.779999 2.610001 53.080002 2.199997 C 47.09 1.540001 44.810001 1.440002 41.66 1.440002 L 41.66 1.410004 C 40.73 1.349998 39.799999 1.32 38.849998 1.32 C 31.740002 1.32 25.25 2.989998 19.389999 6.32 C 13.530001 9.660004 8.89 14.309998 5.48 20.279999 C 2.07 26.25 0.37 32.98 0.37 40.450001 C 0.37 47.919998 2.07 54.650002 5.48 60.620003 C 8.89 66.589996 13.52 71.25 19.389999 74.580002 C 25.25 77.919998 31.740002 79.580002 38.849998 79.580002 C 46.029999 79.580002 52.549999 77.909996 58.419998 74.580002 C 64.279999 71.25 68.900002 66.610001 72.269997 60.669998 C 75.639999 54.729996 77.330002 47.989998 77.330002 40.439999 C 77.32 32.899998 75.639999 26.150002 72.269997 20.220001 Z"/>
    </g>
</svg>
